<svg xmlns="http://www.w3.org/2000/svg" viewBox="0 0 64 64" id="profile">
  <path fill="#1976d2" d="M32 62a76.92 76.92 0 0 1-18.5-2.26A5.91 5.91 0 0 1 9 54a23 23 0 0 1 45.81-3 2 2 0 1 1-4 .51A19 19 0 0 0 13 54a1.92 1.92 0 0 0 1.46 1.88 73.28 73.28 0 0 0 35.08 0 2 2 0 1 1 1 3.88A76.86 76.86 0 0 1 32 62zM32 28A11 11 0 0 1 21 17V15a11 11 0 0 1 22 0v2A11 11 0 0 1 32 28zM32 8a7 7 0 0 0-7 7v2a7 7 0 0 0 14 0V15A7 7 0 0 0 32 8z"></path>
  <path fill="#ef9a9a" d="M19.93,50a2,2,0,0,1-.9-.21,2,2,0,0,1-.89-2.68,15.72,15.72,0,0,1,5-5.78,2,2,0,1,1,2.31,3.27,11.69,11.69,0,0,0-3.69,4.3A2,2,0,0,1,19.93,50Z"></path>
</svg>
